<?xml version="1.0" encoding="utf-8"?>
<!-- Generator: Adobe Illustrator 15.1.0, SVG Export Plug-In . SVG Version: 6.00 Build 0)  -->
<!DOCTYPE svg PUBLIC "-//W3C//DTD SVG 1.1//EN" "http://www.w3.org/Graphics/SVG/1.1/DTD/svg11.dtd">
<svg version="1.1" id="Layer_1" xmlns="http://www.w3.org/2000/svg" xmlns:xlink="http://www.w3.org/1999/xlink" x="0px" y="0px"
	 width="30px" height="36px" viewBox="0 0 30 36" enable-background="new 0 0 30 36" xml:space="preserve">
<g>
	<path fill="#FFFFFF" stroke="#FFFFFF" stroke-width="0.9616" stroke-miterlimit="10" d="M6,26.426c0.611,0,1.107-0.5,1.107-1.114
		v-1.998h1.983c0.612,0,1.106-0.5,1.106-1.113v-2.001h1.986c0.611,0,1.107-0.498,1.107-1.115v-2.652l1.848-1.86
		c0.281-0.282,0.389-0.693,0.285-1.075c-0.682-2.575,0.57-5.267,2.969-6.392c2.398-1.129,5.25-0.352,6.766,1.831
		c1.514,2.181,1.256,5.143-0.615,7.026l0,0c-1.021,1.027-2.408,1.604-3.854,1.604c-0.475,0-0.949-0.063-1.406-0.189
		c-0.383-0.103-0.791,0.009-1.07,0.288L7.182,28.773l-2.561-0.517l-0.365-1.831H6L6,26.426z"/>
	<path fill="#406BB2" d="M20.5,5.354c2.674,0,5.082,1.485,6.283,3.874c1.199,2.391,0.951,5.209-0.648,7.354
		c-1.318,1.769-3.423,2.823-5.627,2.823c-0.412,0-0.828-0.035-1.234-0.108l-0.248-0.045L8.051,30.223
		c-0.113,0.114-0.264,0.177-0.422,0.177c-0.039,0-0.08-0.004-0.121-0.011l-3.787-0.758c-0.24-0.049-0.426-0.234-0.474-0.474
		l-0.755-3.785c-0.037-0.179,0.01-0.361,0.124-0.502c0.114-0.139,0.284-0.22,0.465-0.22h2.427v-2.425
		c0-0.332,0.271-0.604,0.604-0.604h2.428v-2.428c0-0.333,0.27-0.603,0.6-0.603h2.428v-2.425c0-0.161,0.063-0.313,0.177-0.426
		l1.886-1.887l-0.044-0.246c-0.368-2.053,0.188-4.145,1.528-5.743c1.337-1.597,3.299-2.512,5.383-2.512H20.5z M20.502,18.2
		c1.553,0,3.014-0.604,4.114-1.701c2.003-2.001,2.278-5.137,0.657-7.455c-1.09-1.557-2.875-2.483-4.773-2.483
		c-0.852,0-1.678,0.183-2.453,0.544c-2.564,1.193-3.896,4.042-3.167,6.775c0.056,0.213-0.001,0.432-0.157,0.585l-1.949,1.949v2.78
		c0,0.332-0.271,0.604-0.604,0.604H9.744v2.428c0,0.33-0.271,0.602-0.605,0.602H6.715v2.426c0,0.332-0.271,0.604-0.604,0.604H3.817
		l0.532,2.67l3.078,0.616l10.986-10.987c0.116-0.112,0.27-0.176,0.432-0.176c0.052,0,0.104,0.005,0.154,0.021
		C19.492,18.131,19.998,18.2,20.502,18.2z"/>
	<path fill="#406BB2" d="M20.422,9.688c1.32,0,2.465,0.94,2.723,2.238c0.258,1.295-0.441,2.6-1.662,3.103
		c-0.338,0.139-0.693,0.211-1.059,0.211c-0.932,0-1.795-0.462-2.311-1.235c-0.732-1.097-0.586-2.572,0.35-3.503l0.082-0.083
		c0.51-0.466,1.188-0.73,1.874-0.73C20.42,9.688,20.422,9.688,20.422,9.688z M20.422,14.021c0.418,0,0.811-0.163,1.107-0.458
		c0.29-0.287,0.459-0.691,0.459-1.105c0-0.416-0.162-0.808-0.459-1.106c-0.295-0.296-0.688-0.459-1.105-0.459
		c-0.207,0-0.408,0.04-0.6,0.118c-0.589,0.246-0.967,0.813-0.967,1.447c0,0.638,0.38,1.205,0.968,1.445
		C20.012,13.982,20.216,14.021,20.422,14.021z"/>
</g>
</svg>
