<?xml version="1.0" encoding="utf-8"?>
<!-- Generator: Adobe Illustrator 15.1.0, SVG Export Plug-In . SVG Version: 6.00 Build 0)  -->
<!DOCTYPE svg PUBLIC "-//W3C//DTD SVG 1.1//EN" "http://www.w3.org/Graphics/SVG/1.1/DTD/svg11.dtd">
<svg version="1.1" id="Layer_1" xmlns="http://www.w3.org/2000/svg" xmlns:xlink="http://www.w3.org/1999/xlink" x="0px" y="0px"
	 width="30px" height="36px" viewBox="0 0 30 36" enable-background="new 0 0 30 36" xml:space="preserve">
<g>
	<path fill="#FFFFFF" d="M22.05,14.307c-0.635,0-1.15,0.52-1.15,1.158v2.079h-2.064c-0.635,0-1.15,0.519-1.15,1.158v2.079H15.62
		c-0.637,0-1.15,0.519-1.15,1.161v2.757l-1.922,1.936c-0.293,0.293-0.404,0.721-0.299,1.117c0.71,2.678-0.592,5.478-3.086,6.646
		c-2.493,1.175-5.461,0.366-7.035-1.903c-1.576-2.268-1.307-5.349,0.639-7.307l0,0c1.063-1.069,2.505-1.669,4.008-1.669
		c0.494,0,0.986,0.066,1.463,0.197c0.397,0.105,0.822-0.01,1.112-0.301l11.472-11.551l2.664,0.537l0.379,1.904H22.05L22.05,14.307z"
		/>
	<path fill="#406BB2" d="M5.759,25.696c-1.492,0.615-2.342,2.206-2.027,3.787c0.315,1.584,1.705,2.729,3.32,2.729l0,0
		c0.897,0.001,1.758-0.357,2.392-0.987v-0.004c1.144-1.141,1.323-2.93,0.427-4.274C8.974,25.604,7.253,25.08,5.759,25.696z
		 M7.484,29.874c-0.422,0.175-0.905,0.08-1.229-0.245c-0.212-0.212-0.333-0.497-0.333-0.796c0-0.3,0.12-0.588,0.333-0.797l0,0
		c0.323-0.323,0.807-0.421,1.229-0.244c0.421,0.172,0.696,0.583,0.696,1.041C8.181,29.289,7.905,29.698,7.484,29.874z"/>
	<path fill="#406BB2" d="M7.053,31.713c-1.372,0-2.563-0.979-2.831-2.327c-0.268-1.347,0.459-2.704,1.729-3.228
		c0.352-0.145,0.722-0.219,1.101-0.219c0.968,0,1.866,0.48,2.403,1.285c0.762,1.142,0.608,2.674-0.363,3.643l-0.086,0.086
		c-0.531,0.484-1.234,0.76-1.949,0.76H7.053z M7.052,27.205c-0.434,0-0.842,0.17-1.15,0.478c-0.303,0.298-0.479,0.718-0.479,1.15
		c0,0.432,0.17,0.84,0.479,1.149c0.307,0.308,0.715,0.478,1.15,0.478c0.215,0,0.425-0.041,0.624-0.124
		c0.61-0.255,1.005-0.845,1.005-1.503c0-0.664-0.396-1.254-1.008-1.504C7.478,27.247,7.268,27.205,7.052,27.205z"/>
	<path fill="#FFFFFF" stroke="#406BB2" stroke-width="1.2" stroke-linejoin="round" stroke-miterlimit="10" d="M28.39,6.764v25.834
		c0,1.105-0.896,2-2,2H3.89c-1.105,0-2-0.895-2-2V3.431c0-1.104,0.895-2,2-2h18.582h0.168L28.39,6.764z"/>
	<path fill="#406BB2" d="M11.224,17.309H5.728c-0.138,0-0.25,0.244-0.25,0.546S5.59,18.4,5.728,18.4h5.496
		c0.138,0,0.25-0.244,0.25-0.546S11.361,17.309,11.224,17.309z"/>
	<path fill="none" stroke="#406BB2" stroke-width="1.2" stroke-miterlimit="10" d="M22.722,1.764v3.595c0,0-0.166,1.348,1.084,1.572
		h4.75"/>
	<path fill="#406BB2" d="M11.224,21.244H5.728c-0.138,0-0.25,0.244-0.25,0.547c0,0.301,0.112,0.545,0.25,0.545h5.496
		c0.138,0,0.25-0.244,0.25-0.545C11.474,21.488,11.361,21.244,11.224,21.244z"/>
	<path fill="#406BB2" d="M11.224,25.461H5.728c-0.138,0-0.25,0.244-0.25,0.546s0.112,0.546,0.25,0.546h5.496
		c0.138,0,0.25-0.244,0.25-0.546S11.361,25.461,11.224,25.461z"/>
	<polyline fill="#FFFFFF" stroke="#406BB2" stroke-width="1.2" stroke-linejoin="round" stroke-miterlimit="10" points="
		16.306,26.681 16.306,31.431 19.639,29.848 23.055,31.515 23.139,26.848 	"/>
	
		<circle fill="#FFFFFF" stroke="#406BB2" stroke-width="1.0147" stroke-linejoin="round" stroke-miterlimit="10" cx="19.93" cy="23.389" r="4.792"/>
	
		<circle fill="#FFFFFF" stroke="#406BB2" stroke-width="1.2" stroke-linejoin="round" stroke-miterlimit="10" cx="20.014" cy="23.389" r="2.875"/>
	<g>
		<g>
			<path fill="#406BB2" stroke="#406BB2" stroke-width="0.25" stroke-miterlimit="10" d="M9.426,12.934
				c-0.544,0.521-1.193,0.694-1.927,0.694c-1.299,0-2.183-0.793-2.183-2.394V10.41c0-1.586,0.892-2.395,2.183-2.395
				c0.748,0,1.292,0.182,1.798,0.582L8.912,9.209c-0.491-0.4-0.922-0.498-1.413-0.498c-0.823,0-1.427,0.551-1.427,1.798v0.627
				c0,1.246,0.604,1.798,1.427,1.798c0.521,0,1.065-0.129,1.519-0.574L9.426,12.934z"/>
			<path fill="#406BB2" stroke="#406BB2" stroke-width="0.25" stroke-miterlimit="10" d="M13.435,13.152
				c-0.362,0.249-0.846,0.453-1.594,0.453c-1.02,0-1.813-0.566-1.813-1.903v-0.468c0-1.254,0.755-1.896,1.774-1.896
				c1.058,0,1.729,0.672,1.729,1.851v0.552h-2.779v0.029c0,0.778,0.461,1.201,1.118,1.201c0.536,0,0.898-0.143,1.254-0.369
				L13.435,13.152z M10.753,11.037v0.105h2.069v-0.135c0-0.635-0.393-1.043-1.02-1.043C11.191,9.965,10.753,10.402,10.753,11.037z"
				/>
			<path fill="#406BB2" stroke="#406BB2" stroke-width="0.25" stroke-miterlimit="10" d="M16.733,10.131
				c-0.144-0.061-0.31-0.098-0.506-0.098c-0.544,0-1.012,0.453-1.012,1.103v2.409h-0.733V9.414h0.71v0.656H15.2
				c0.242-0.461,0.612-0.732,1.216-0.732c0.189,0,0.37,0.03,0.536,0.083L16.733,10.131z"/>
			<path fill="#406BB2" stroke="#406BB2" stroke-width="0.25" stroke-miterlimit="10" d="M17.964,10.041h-0.68V9.414h0.68V8.371
				h0.732v1.043h1.088v0.627h-1.088v2.348c0,0.507,0.22,0.59,0.529,0.59c0.182,0,0.354-0.03,0.544-0.098l0.113,0.588
				c-0.166,0.068-0.476,0.137-0.771,0.137c-0.786,0-1.148-0.385-1.148-1.217V10.041z"/>
		</g>
	</g>
</g>
</svg>
