<?xml version="1.0" encoding="utf-8"?>
<!-- Generator: Adobe Illustrator 15.1.0, SVG Export Plug-In . SVG Version: 6.00 Build 0)  -->
<!DOCTYPE svg PUBLIC "-//W3C//DTD SVG 1.1//EN" "http://www.w3.org/Graphics/SVG/1.1/DTD/svg11.dtd">
<svg version="1.1" id="Layer_1" xmlns="http://www.w3.org/2000/svg" xmlns:xlink="http://www.w3.org/1999/xlink" x="0px" y="0px"
	 width="35px" height="40px" viewBox="0 0 35 40" enable-background="new 0 0 35 40" xml:space="preserve">
<g>
	<g>
		<g>
			<path fill="#FFFFFF" d="M26,16.916H14.912c-0.4,0-0.775-0.198-0.999-0.528l-1.338-1.99c-0.446-0.667-1.2-1.067-2.007-1.067H5.513
				V4.961c0-0.659,0.539-1.193,1.205-1.195H23.59v3.587c0.001,1.319,1.079,2.39,2.41,2.392h3.614v23.909
				c0,0.66-0.54,1.195-1.204,1.195V19.308C28.408,17.988,27.33,16.918,26,16.916z"/>
			<g>
				<path fill="#BFD9F1" d="M4.309,37.3c-0.666,0-1.205-0.542-1.205-1.212V15.49c0-0.67,0.539-1.211,1.205-1.212h6.26
					c0.404,0,0.781,0.203,1.006,0.542l1.339,2.02c0.447,0.67,1.197,1.071,2,1.073H26c0.665,0.001,1.205,0.543,1.205,1.212v16.963
					c0.003,0.428,0.118,0.847,0.336,1.212H4.309z"/>
				<g>
					<path fill="#406BB2" d="M21.18,7.215H7.924c-0.333,0-0.604,0.27-0.604,0.602c0,0.334,0.271,0.604,0.604,0.604H21.18
						c0.333,0,0.604-0.27,0.604-0.604C21.783,7.484,21.513,7.215,21.18,7.215z"/>
					<g>
						<path fill="#406BB2" d="M30.821,19.868V9.021c0-0.012-0.008-0.023-0.008-0.037c-0.009-0.145-0.068-0.282-0.169-0.387V8.596
							L24.619,2.57h-0.001c-0.052-0.049-0.109-0.088-0.173-0.117c-0.018-0.008-0.037-0.012-0.055-0.02
							c-0.053-0.018-0.108-0.029-0.164-0.033c-0.012,0-0.021-0.006-0.035-0.006H6.718c-1.33,0.001-2.408,1.079-2.409,2.41v8.436
							c-1.331,0.001-2.409,1.08-2.41,2.41v20.486c0.001,1.33,1.079,2.408,2.41,2.41h26.513c1.33-0.002,2.408-1.08,2.409-2.41V22.277
							C33.229,20.947,32.151,19.869,30.821,19.868z M24.795,4.451l3.969,3.969H26c-0.665-0.001-1.204-0.54-1.205-1.205V4.451z
							 M4.309,37.342c-0.666,0-1.205-0.539-1.205-1.205V15.65c0-0.666,0.539-1.205,1.205-1.205h6.26
							c0.404,0,0.781,0.202,1.006,0.539l1.339,2.009c0.447,0.667,1.197,1.067,2,1.067H26c0.665,0,1.205,0.54,1.205,1.205v16.871
							c0.003,0.426,0.118,0.842,0.336,1.205H4.309z M26,17H14.913c-0.401-0.001-0.775-0.199-0.999-0.529l-1.338-1.99
							c-0.446-0.667-1.2-1.068-2.008-1.067H5.513V5.045c0.001-0.66,0.54-1.195,1.205-1.195H23.59v3.586
							c0.001,1.32,1.08,2.39,2.41,2.391h3.615v23.91c0,0.66-0.54,1.195-1.205,1.195V19.391C28.409,18.07,27.33,17.001,26,17z
							 M32.025,36.137c0,0.666-0.54,1.205-1.204,1.205h-1.206c-0.665,0-1.204-0.539-1.205-1.205c1.331,0,2.408-1.08,2.41-2.41
							V21.074c0.665,0,1.204,0.539,1.205,1.203V36.137L32.025,36.137z"/>
						<path fill="#406BB2" d="M21.18,9.625H7.924c-0.333,0-0.604,0.27-0.604,0.602c0,0.334,0.271,0.604,0.604,0.604H21.18
							c0.333,0,0.604-0.27,0.604-0.604C21.783,9.895,21.513,9.625,21.18,9.625z"/>
						<path fill="#406BB2" d="M21.18,12.035h-7.23c-0.333,0-0.604,0.27-0.604,0.602c0,0.334,0.271,0.604,0.604,0.604h7.23
							c0.333,0,0.604-0.27,0.604-0.604C21.783,12.305,21.513,12.035,21.18,12.035z"/>
						<path fill="#406BB2" d="M21.18,14.445h-6.025c-0.333,0-0.603,0.27-0.603,0.603s0.27,0.603,0.603,0.603h6.025
							c0.333,0,0.604-0.27,0.604-0.603S21.513,14.445,21.18,14.445z"/>
						<path fill="#F5F5F5" d="M20.035,22.998c-0.332,0-0.603,0.27-0.603,0.602v1.082h-1.081c-0.334,0-0.604,0.27-0.604,0.602v1.082
							h-1.081c-0.333,0-0.603,0.271-0.603,0.604v1.435l-1.007,1.007c-0.152,0.152-0.212,0.374-0.155,0.582
							c0.371,1.393-0.311,2.85-1.616,3.457c-1.307,0.608-2.861,0.189-3.687-0.99s-0.684-2.783,0.336-3.802l0,0
							c0.557-0.556,1.312-0.868,2.099-0.868c0.259,0,0.517,0.035,0.767,0.103c0.208,0.056,0.43-0.005,0.582-0.156l6.008-6.008
							l1.396,0.278l0.197,0.992H20.035L20.035,22.998z"/>
						<path fill="#406BB2" d="M21.952,21.375c-0.048-0.237-0.234-0.424-0.473-0.471l-2.105-0.422
							c-0.198-0.041-0.401,0.021-0.544,0.165l-6.003,6.002c-1.555-0.278-3.133,0.347-4.077,1.612
							c-0.944,1.267-1.094,2.957-0.385,4.369c0.709,1.41,2.153,2.301,3.732,2.301c1.235,0.002,2.407-0.545,3.2-1.492
							c0.793-0.945,1.126-2.195,0.907-3.411l0.95-0.95c0.113-0.112,0.177-0.266,0.177-0.426v-1.081h1.082
							c0.332,0,0.602-0.271,0.602-0.603v-1.082h1.082c0.332,0,0.604-0.27,0.604-0.604v-1.081h1.082c0.18,0,0.35-0.081,0.465-0.22
							c0.115-0.141,0.16-0.324,0.125-0.501L21.952,21.375z M20.098,22.998c-0.333,0-0.603,0.27-0.603,0.602v1.082h-1.081
							c-0.333,0-0.604,0.27-0.604,0.602v1.082h-1.081c-0.333,0-0.603,0.271-0.603,0.604v1.435L15.12,29.41
							c-0.152,0.152-0.212,0.374-0.156,0.582c0.372,1.393-0.31,2.85-1.616,3.457c-1.306,0.608-2.859,0.189-3.686-0.99
							c-0.824-1.18-0.684-2.783,0.335-3.802l0,0c0.558-0.556,1.313-0.868,2.1-0.868c0.259,0,0.517,0.035,0.767,0.103
							c0.208,0.056,0.43-0.005,0.582-0.156l6.008-6.008l1.396,0.278l0.197,0.992H20.098L20.098,22.998z"/>
						<path fill="#406BB2" d="M11.449,29.038c-0.799,0.329-1.252,1.179-1.084,2.025s0.912,1.458,1.775,1.458l0,0
							c0.479,0.002,0.939-0.189,1.278-0.527v-0.002c0.612-0.609,0.707-1.566,0.228-2.285C13.168,28.988,12.248,28.709,11.449,29.038
							z M12.371,31.271c-0.225,0.094-0.484,0.043-0.656-0.131c-0.113-0.113-0.178-0.266-0.178-0.426s0.063-0.314,0.178-0.426l0,0
							c0.172-0.174,0.432-0.225,0.656-0.131c0.226,0.093,0.372,0.313,0.372,0.557S12.597,31.178,12.371,31.271z"/>
					</g>
					<path fill="#FFFFFF" d="M24.712,4.451L28.68,8.42h-2.763c-0.665-0.001-1.204-0.54-1.205-1.205V4.451z"/>
				</g>
			</g>
		</g>
	</g>
	<path fill="#BFD9F1" d="M32.025,36.086c0,0.672-0.54,1.215-1.204,1.215h-1.206c-0.665,0-1.204-0.543-1.205-1.215
		c1.331,0,2.408-1.088,2.41-2.429v-12.75c0.665,0,1.204,0.544,1.205,1.214V36.086L32.025,36.086z"/>
</g>
</svg>
